<svg width="213" height="213" viewBox="0 0 213 213" fill="none" xmlns="http://www.w3.org/2000/svg">
<g opacity="0.1">
<path d="M60.345 6.5H205.812V151.967H97.7203C77.0928 151.967 60.345 135.219 60.345 114.592V6.5Z" fill="#E54DE5"/>
<path d="M6.5 61.0327H111.709C133.929 61.0327 151.959 79.0712 151.959 101.283V206.492H6.5V61.0327Z" fill="#16DBBE"/>
<path fill-rule="evenodd" clip-rule="evenodd" d="M151.691 151.967H97.4518C76.8242 151.967 60.0764 135.219 60.0764 114.592V61.0327H111.441C133.66 61.0327 151.691 79.0712 151.691 101.283V151.967Z" fill="#FFC800"/>
<path fill-rule="evenodd" clip-rule="evenodd" d="M0 61.0327C0 57.4429 2.91015 54.5327 6.5 54.5327H111.709C137.519 54.5327 158.459 75.4822 158.459 101.283V206.492C158.459 210.082 155.549 212.992 151.959 212.992H6.5C2.91015 212.992 0 210.082 0 206.492V61.0327ZM13 67.5327V199.992H145.459V101.283C145.459 82.6602 130.338 67.5327 111.709 67.5327H13Z" fill="#FFF1E2"/>
<path fill-rule="evenodd" clip-rule="evenodd" d="M53.845 6.5C53.845 2.91015 56.7551 0 60.345 0H205.812C209.402 0 212.312 2.91015 212.312 6.5V151.967C212.312 155.557 209.402 158.467 205.812 158.467H97.7203C73.5029 158.467 53.845 138.809 53.845 114.592V6.5ZM66.845 13V114.592C66.845 131.63 80.6826 145.467 97.7203 145.467H199.312V13H66.845Z" fill="#FFF1E2"/>
<path fill-rule="evenodd" clip-rule="evenodd" d="M210.379 147.342C212.934 149.864 212.96 153.98 210.438 156.534L156.593 211.067C154.07 213.621 149.955 213.648 147.4 211.125C144.846 208.603 144.82 204.488 147.342 201.933L201.187 147.4C203.709 144.846 207.825 144.82 210.379 147.342Z" fill="#FFF1E2"/>
<path fill-rule="evenodd" clip-rule="evenodd" d="M64.9119 1.87473C67.4664 4.39698 67.4925 8.51246 64.9702 11.0669L11.1253 65.5997C8.60303 68.1542 4.48754 68.1803 1.93307 65.6581C-0.621398 63.1358 -0.647517 59.0203 1.87473 56.4659L55.7197 1.93307C58.2419 -0.621398 62.3574 -0.647517 64.9119 1.87473Z" fill="#FFF1E2"/>
</g>
</svg>
