<svg width="24" height="25" viewBox="0 0 24 25" fill="none" xmlns="http://www.w3.org/2000/svg">
<path d="M6.83813 1.1377H23.2288V17.5283H11.0494C8.72521 17.5283 6.83813 15.6412 6.83813 13.3171V1.1377Z" fill="#E54DE5"/>
<path d="M0.771118 7.28223H12.6257C15.1293 7.28223 17.1609 9.31473 17.1609 11.8175V23.672H0.771118V7.28223Z" fill="#16DBBE"/>
<path fill-rule="evenodd" clip-rule="evenodd" d="M17.1306 17.5283H11.0192C8.69494 17.5283 6.80786 15.6412 6.80786 13.3171V7.28223H12.5954C15.099 7.28223 17.1306 9.31473 17.1306 11.8175V17.5283Z" fill="#FFC800"/>
<path fill-rule="evenodd" clip-rule="evenodd" d="M0.0386963 7.2822C0.0386963 6.87771 0.3666 6.5498 0.771091 6.5498H12.6256C15.5338 6.5498 17.8932 8.91031 17.8932 11.8174V23.672C17.8932 24.0765 17.5653 24.4044 17.1608 24.4044H0.771091C0.3666 24.4044 0.0386963 24.0765 0.0386963 23.672V7.2822ZM1.50348 8.01459V22.9396H16.4284V11.8174C16.4284 9.7191 14.7247 8.01459 12.6256 8.01459H1.50348Z" fill="#FFF1E2"/>
<path fill-rule="evenodd" clip-rule="evenodd" d="M6.10571 1.13767C6.10571 0.733178 6.43361 0.405273 6.83811 0.405273H23.2288C23.6333 0.405273 23.9611 0.733178 23.9611 1.13767V17.5283C23.9611 17.9328 23.6333 18.2607 23.2288 18.2607H11.0494C8.32069 18.2607 6.10571 16.0457 6.10571 13.317V1.13767ZM7.5705 1.87006V13.317C7.5705 15.2368 9.12967 16.7959 11.0494 16.7959H22.4964V1.87006H7.5705Z" fill="#FFF1E2"/>
<path fill-rule="evenodd" clip-rule="evenodd" d="M23.7434 17.0071C24.0313 17.2913 24.0342 17.7551 23.75 18.0428L17.683 24.1874C17.3987 24.4752 16.935 24.4782 16.6471 24.1939C16.3594 23.9098 16.3564 23.4461 16.6406 23.1582L22.7077 17.0137C22.9918 16.7259 23.4556 16.723 23.7434 17.0071Z" fill="#FFF1E2"/>
<path fill-rule="evenodd" clip-rule="evenodd" d="M7.35271 0.616511C7.64054 0.900708 7.64348 1.36442 7.35928 1.65225L1.29225 7.79679C1.00805 8.08462 0.544335 8.08756 0.256507 7.80337C-0.0313204 7.51917 -0.0342634 7.05545 0.249933 6.76763L6.31697 0.623084C6.60116 0.335257 7.06488 0.332314 7.35271 0.616511Z" fill="#FFF1E2"/>
</svg>
